<?xml version="1.0" encoding="UTF-8" standalone="no"?>
<svg
   width="8.5in"
   height="11in"
   viewBox="0 0 111.52 144.32"
   shape-rendering="crispEdges"
   version="1.1"
   id="svg2"
   sodipodi:docname="ingameqrcode.svg"
   inkscape:version="1.4 (e7c3feb1, 2024-10-09)"
   inkscape:export-filename="../ContentSource/qrcode.png"
   inkscape:export-xdpi="96"
   inkscape:export-ydpi="96"
   xmlns:inkscape="http://www.inkscape.org/namespaces/inkscape"
   xmlns:sodipodi="http://sodipodi.sourceforge.net/DTD/sodipodi-0.dtd"
   xmlns="http://www.w3.org/2000/svg"
   xmlns:svg="http://www.w3.org/2000/svg">
  <defs
     id="defs2" />
  <sodipodi:namedview
     id="namedview2"
     pagecolor="#ffffff"
     bordercolor="#000000"
     borderopacity="0.25"
     inkscape:showpageshadow="2"
     inkscape:pageopacity="0.0"
     inkscape:pagecheckerboard="0"
     inkscape:deskcolor="#d1d1d1"
     inkscape:zoom="0.73166667"
     inkscape:cx="336.90205"
     inkscape:cy="531.66287"
     inkscape:window-width="2304"
     inkscape:window-height="1387"
     inkscape:window-x="1512"
     inkscape:window-y="25"
     inkscape:window-maximized="0"
     inkscape:current-layer="svg2"
     inkscape:export-bgcolor="#ffffff00"
     inkscape:document-units="in" />
  <path
     stroke="#000000"
     d="m 15.618395,33.234808 h 17.029773 m 2.432824,0 h 4.86565 m 7.298473,0 h 4.86565 m 4.86565,0 h 2.432824 m 9.7313,0 h 2.432824 m 2.432825,0 h 2.432825 m 2.432825,0 h 17.029767 m -80.28321,2.432825 h 2.432824 m 12.164124,0 h 2.432825 m 7.298474,0 h 4.865649 m 9.731298,0 h 2.432826 m 7.298473,0 h 2.432826 m 7.298474,0 h 2.432825 m 2.432825,0 h 2.432824 m 12.16412,0 h 2.432823 m -80.28321,2.432825 h 2.432824 m 2.432826,0 h 7.298472 m 2.432826,0 h 2.432825 m 2.432824,0 h 2.432824 m 4.86565,0 h 2.432825 m 2.432824,0 h 2.432825 m 7.298475,0 h 2.432824 m 7.298475,0 h 2.432825 m 2.432824,0 h 2.432825 m 4.86565,0 h 2.432824 m 2.432825,0 h 7.29848 m 2.432815,0 h 2.432823 m -80.28321,2.432824 h 2.432824 m 2.432826,0 h 7.298472 m 2.432826,0 h 2.432825 m 19.462597,0 h 2.432824 m 7.298475,0 h 2.432824 m 4.865651,0 h 2.432824 m 2.432825,0 h 2.432825 m 2.432825,0 h 2.432824 m 2.432825,0 h 7.29848 m 2.432815,0 h 2.432823 m -80.28321,2.432825 h 2.432824 m 2.432826,0 h 7.298472 m 2.432826,0 h 2.432825 m 7.298474,0 h 4.865649 m 7.298474,0 h 2.432824 m 2.432826,0 h 2.432824 m 2.432825,0 h 2.432824 m 7.298475,0 h 4.86565 m 2.432825,0 h 2.432824 m 2.432825,0 h 7.29848 m 2.432815,0 h 2.432823 m -80.28321,2.432824 h 2.432824 m 12.164124,0 h 2.432825 m 2.432824,0 h 2.432824 m 7.298475,0 h 2.432824 m 2.432825,0 h 4.865649 m 2.432826,0 h 7.298473 m 2.432826,0 h 7.298474 m 4.86565,0 h 2.432824 m 12.16412,0 h 2.432823 m -80.28321,2.432825 h 17.029773 m 2.432824,0 h 2.432824 m 2.432826,0 h 2.432824 m 2.432825,0 h 2.432824 m 2.432825,0 h 2.432825 m 2.432824,0 h 2.432826 m 2.432824,0 h 2.432825 m 2.432824,0 h 2.432826 m 2.432825,0 h 2.432824 m 2.432825,0 h 2.432825 m 2.432825,0 h 17.029767 m -58.387789,2.432825 h 2.432826 m 4.865649,0 h 2.432824 m 2.432825,0 h 7.298475 m 2.432824,0 h 7.298475 m 7.298474,0 h 2.432825 m -60.820618,2.432824 h 2.432824 m 2.432826,0 h 2.432823 m 7.298475,0 h 4.865649 m 9.731299,0 h 2.432824 m 2.432825,0 h 2.432825 m 2.432824,0 h 2.432826 m 7.298473,0 h 2.432826 m 7.298474,0 h 2.432825 m 4.865649,0 h 2.432825 m 4.865649,0 h 2.432831 m 2.432815,0 h 2.432823 m -72.984737,2.432826 h 7.298475 m 9.731299,0 h 2.432824 m 2.432825,0 h 4.865649 m 2.432825,0 h 7.298474 m 2.432825,0 h 14.596949 m 2.432825,0 h 2.432824 m 4.86565,0 h 2.432824 m 2.432831,0 h 4.865638 m -68.119088,2.432824 h 7.298475 m 4.86565,0 h 2.432824 m 9.731299,0 h 2.432824 m 7.298475,0 h 14.596949 m 2.432825,0 h 2.432824 m 4.86565,0 h 4.865655 m 2.432815,0 h 2.432823 m -75.41756,2.432825 h 2.432823 m 4.865649,0 h 2.432826 m 4.865649,0 h 2.432824 m 7.298475,0 h 4.865649 m 2.432825,0 h 2.432824 m 2.432826,0 h 2.432824 m 12.164124,0 h 2.432825 m 2.432825,0 h 12.164123 m -72.984741,2.432825 h 7.298473 m 2.432825,0 h 9.731299 m 2.432824,0 h 2.432826 m 2.432824,0 h 2.432825 m 2.432824,0 h 2.432825 m 2.432825,0 h 2.432824 m 2.432826,0 h 2.432824 m 2.432825,0 h 7.298475 m 2.432824,0 h 2.432825 m 2.432825,0 h 2.432825 m 12.164129,0 h 4.865638 m -75.41756,2.432824 h 9.731298 m 7.298473,0 h 4.86565 m 2.432825,0 h 4.865649 m 19.462599,0 h 2.432824 m 12.164124,0 h 2.432825 m 4.865655,0 h 4.865638 m -80.28321,2.432825 h 2.432824 m 2.432826,0 h 12.164123 m 2.432824,0 h 2.432824 m 9.731299,0 h 7.298474 m 2.432826,0 h 2.432824 m 2.432825,0 h 4.86565 m 2.432825,0 h 2.432824 m 2.432825,0 h 2.432825 m 9.731299,0 h 4.865655 m 2.432815,0 h 2.432823 m -80.28321,2.432824 h 2.432824 m 2.432826,0 h 4.865648 m 2.432824,0 h 2.432826 m 14.596948,0 h 4.865649 m 9.731299,0 h 2.432825 m 7.298475,0 h 2.432824 m 4.86565,0 h 4.865649 m -51.089319,2.432825 h 2.432825 m 2.432824,0 h 4.86565 m 2.432824,0 h 2.432825 m 4.865649,0 h 7.298475 m 4.865649,0 h 2.432824 m 14.59695,0 h 4.865649 m 2.432825,0 h 2.432824 m 2.432831,0 h 2.432815 m -77.850387,2.432826 h 2.432824 m 2.432826,0 h 2.432823 m 2.432825,0 h 2.432824 m 7.298475,0 h 2.432824 m 2.432826,0 h 7.298473 m 4.86565,0 h 4.86565 m 2.432824,0 h 21.895423 m 4.86565,0 h 2.432824 m 2.432831,0 h 4.865638 m -80.28321,2.432824 h 2.432824 m 12.164124,0 h 4.865649 m 2.432824,0 h 2.432826 m 7.298473,0 h 2.432825 m 2.432825,0 h 12.164123 m 4.865651,0 h 4.865649 m 2.432825,0 h 7.298474 m 2.432825,0 h 4.865655 m 2.432815,0 h 2.432823 m -75.41756,2.432824 h 2.432823 m 4.865649,0 h 2.432826 m 2.432825,0 h 2.432824 m 2.432824,0 H 49.67794 m 2.432825,0 h 4.86565 m 2.432824,0 h 2.432825 m 2.432824,0 h 4.865651 m 2.432824,0 h 7.298475 m 4.865649,0 h 4.865649 m 2.432831,0 h 2.432815 m -75.417563,2.432825 h 2.432826 m 4.865648,0 h 7.298475 m 4.865648,0 h 2.432826 m 2.432824,0 h 7.298474 m 4.865649,0 h 7.298475 m 2.432824,0 h 4.865651 m 7.298474,0 h 4.865649 m 2.432825,0 h 2.432825 m 4.865655,0 h 4.865638 m -75.41756,2.432825 h 4.865648 m 2.432824,0 h 2.432826 m 2.432825,0 h 4.865648 m 2.432826,0 h 4.865649 m 4.865649,0 h 2.432825 m 2.432824,0 h 2.432826 m 2.432824,0 h 2.432825 m 2.432824,0 h 2.432826 m 2.432825,0 h 2.432824 m 2.432825,0 h 2.432825 m 4.865649,0 h 2.432825 m 2.432825,0 h 4.865655 m 2.432815,0 h 2.432823 m -80.28321,2.432824 h 4.86565 m 4.865648,0 h 2.432824 m 2.432826,0 h 2.432825 m 4.865648,0 h 2.432826 m 2.432824,0 h 2.432825 m 2.432824,0 h 2.432825 m 4.865649,0 h 2.432826 m 2.432824,0 h 2.432825 m 4.86565,0 h 2.432825 m 7.298474,0 h 4.865649 m 2.432825,0 h 2.432825 m 7.29847,0 h 2.432823 m -72.984737,2.432825 h 7.298475 m 4.865649,0 h 2.432824 m 4.86565,0 h 14.596949 m 4.865649,0 h 2.432824 m 7.298475,0 h 2.432825 m 2.432825,0 h 9.731299 m 4.865655,0 h 4.865638 m -80.28321,2.432825 h 7.298473 m 7.298475,0 h 2.432825 m 7.298474,0 h 4.865649 m 2.432824,0 h 2.432825 m 4.865649,0 h 2.432826 m 7.298473,0 h 2.432826 m 7.298474,0 h 12.164124 m 2.432824,0 h 7.298469 m -60.820613,2.432825 h 19.462597 m 2.432826,0 h 2.432824 m 2.432825,0 h 7.298475 m 4.865649,0 h 2.432825 m 7.298474,0 h 2.432825 m 7.29847,0 h 2.432823 m -80.28321,2.432824 h 17.029773 m 2.432824,0 h 2.432824 m 2.432826,0 h 2.432824 m 4.865649,0 h 9.7313 m 4.865649,0 h 2.432824 m 2.432826,0 h 2.432825 m 4.865649,0 h 2.432825 m 2.432825,0 h 2.432824 m 2.432825,0 h 7.29848 m 2.432815,0 h 2.432823 m -80.28321,2.432825 h 2.432824 m 12.164124,0 h 2.432825 m 14.596947,0 h 2.432825 m 4.865649,0 h 4.86565 m 9.7313,0 h 7.298474 m 7.298474,0 h 4.865649 m 2.432831,0 h 4.865638 m -80.28321,2.432825 h 2.432824 m 2.432826,0 h 7.298472 m 2.432826,0 h 2.432825 m 7.298474,0 h 9.731298 m 2.432825,0 h 2.432824 m 2.432826,0 h 2.432824 m 2.432825,0 h 7.298475 m 2.432824,0 h 14.596949 m -70.551917,2.43282 h 2.432824 m 2.432826,0 h 7.298472 m 2.432826,0 h 2.432825 m 7.298474,0 h 4.865649 m 2.432824,0 h 4.86565 m 17.029774,0 h 2.432824 m 4.86565,0 h 2.432825 m 2.432824,0 h 4.86565 m 7.29847,0 h 2.432823 m -80.28321,2.43283 h 2.432824 m 2.432826,0 h 7.298472 m 2.432826,0 h 2.432825 m 2.432824,0 h 7.298474 m 9.731299,0 h 2.432824 m 2.432826,0 h 2.432824 m 2.432825,0 h 7.298475 m 4.865649,0 h 2.432825 m 4.865649,0 h 14.596943 m -80.28321,2.43283 h 2.432824 m 12.164124,0 h 2.432825 m 7.298474,0 h 12.164123 m 7.298474,0 h 2.432825 m 2.432824,0 h 2.432826 m 2.432825,0 h 2.432824 m 9.731299,0 h 4.86565 m -70.551917,2.43281 h 17.029773 m 2.432824,0 h 4.86565 m 4.865649,0 h 12.164124 m 7.298473,0 h 2.432826 m 7.298474,0 h 4.86565 m 2.432824,0 h 4.86565 m 2.432824,0 h 2.432831 m 2.432815,0 h 2.432823"
     id="path2"
     style="stroke:#acbdba;stroke-width:2.43283;stroke-opacity:1;fill:#000000;fill-opacity:0" />
  <text
     xml:space="preserve"
     style="font-size:8.74667px;font-family:'F500 Ang-ular';-inkscape-font-specification:'F500 Ang-ular';text-align:start;writing-mode:lr-tb;direction:ltr;text-anchor:start;fill:#acbdba;fill-opacity:1;stroke:none;stroke-width:2.18667;stroke-linecap:round;stroke-linejoin:round;stroke-opacity:1"
     x="2.7333145"
     y="17.439796"
     id="text2"><tspan
       sodipodi:role="line"
       id="tspan2"
       style="font-size:8.74667px;fill:#acbdba;fill-opacity:1;stroke:none;stroke-width:2.18667;stroke-opacity:1"
       x="2.7333145"
       y="17.439796">wishlist on steam!</tspan></text>
  <text
     xml:space="preserve"
     style="font-size:10.2044px;font-family:'F500 Ang-ular';-inkscape-font-specification:'F500 Ang-ular';text-align:start;writing-mode:lr-tb;direction:ltr;text-anchor:start;fill:#acbdba;fill-opacity:1;stroke:none;stroke-width:2.18667;stroke-linecap:round;stroke-linejoin:round;stroke-opacity:1"
     x="7.1296558"
     y="125.87011"
     id="text4"><tspan
       sodipodi:role="line"
       id="tspan4"
       style="font-size:10.2044px;stroke-width:2.18667;fill:#acbdba;fill-opacity:1;stroke:none;stroke-opacity:1"
       x="7.1296558"
       y="125.87011">early access </tspan><tspan
       sodipodi:role="line"
       style="font-size:10.2044px;stroke-width:2.18667;fill:#acbdba;fill-opacity:1;stroke:none;stroke-opacity:1"
       x="7.1296558"
       y="138.62561"
       id="tspan5">january 2025!</tspan></text>
</svg>
