<?xml version="1.0" encoding="UTF-8" standalone="no"?>
<!-- Uploaded to: SVG Repo, www.svgrepo.com, Generator: SVG Repo Mixer Tools -->

<svg
   width="800px"
   height="800px"
   viewBox="0 0 24 24"
   fill="none"
   version="1.1"
   id="svg1"
   sodipodi:docname="Unlock.svg"
   inkscape:version="1.4 (e7c3feb1, 2024-10-09)"
   xmlns:inkscape="http://www.inkscape.org/namespaces/inkscape"
   xmlns:sodipodi="http://sodipodi.sourceforge.net/DTD/sodipodi-0.dtd"
   xmlns="http://www.w3.org/2000/svg"
   xmlns:svg="http://www.w3.org/2000/svg">
  <defs
     id="defs1" />
  <sodipodi:namedview
     id="namedview1"
     pagecolor="#000000"
     bordercolor="#000000"
     borderopacity="0.25"
     inkscape:showpageshadow="2"
     inkscape:pageopacity="0.0"
     inkscape:pagecheckerboard="0"
     inkscape:deskcolor="#d1d1d1"
     inkscape:zoom="1.26125"
     inkscape:cx="400"
     inkscape:cy="399.60357"
     inkscape:window-width="2304"
     inkscape:window-height="1387"
     inkscape:window-x="1512"
     inkscape:window-y="25"
     inkscape:window-maximized="0"
     inkscape:current-layer="svg1" />
  <path
     style="fill:#ffffff;stroke-linecap:round;stroke-linejoin:round;fill-opacity:1"
     d="M 12,2 C 8.6981382,2 6,4.6981382 6,8 V 9.2480469 C 5.7313003,9.3100513 5.4303599,9.3098296 5.1835937,9.4355469 4.4310658,9.8189496 3.8189904,10.431025 3.4355469,11.183594 2.9483525,12.139864 3,13.120581 3,14.800781 v 1.398438 c 0,1.6802 -0.051648,2.660917 0.4355469,3.617187 0.3834435,0.752569 0.9955189,1.364644 1.7480468,1.748047 C 6.1398789,22.051738 7.1206212,22 8.8007813,22 h 6.3984377 c 1.6802,0 2.660909,0.05168 3.617187,-0.435547 0.752557,-0.383411 1.364636,-0.99549 1.748047,-1.748047 C 21.051681,18.860128 21,17.879419 21,16.199219 v -1.398438 c 0,-1.6802 0.05168,-2.660909 -0.435547,-3.617187 C 20.181042,10.431037 19.568963,9.8189577 18.816406,9.4355469 17.860128,8.948319 16.879419,9 15.199219,9 H 8.8007813 C 8.4792287,9 8.270818,9.0113865 8,9.0136719 V 8 c 0,-2.2209782 1.7790218,-4 4,-4 1.649025,0 3.05158,0.9897109 3.667969,2.4003906 A 1,1 0 0 0 16.984375,6.9160156 1,1 0 0 0 17.5,5.5996094 C 16.573189,3.4784891 14.451575,2 12,2 Z m -3.1992187,9 h 6.3984377 c 1.6802,0 2.381662,0.05198 2.708984,0.21875 0.376443,0.191789 0.681258,0.496604 0.873047,0.873047 C 18.948022,12.419119 19,13.120581 19,14.800781 v 1.398438 c 0,1.6802 -0.05198,2.381662 -0.21875,2.708984 -0.191789,0.376443 -0.496604,0.681258 -0.873047,0.873047 C 17.580881,19.948022 16.879419,20 15.199219,20 H 8.8007813 C 7.1206212,20 6.4189717,19.947965 6.0917969,19.78125 5.7153448,19.589453 5.4105465,19.284634 5.21875,18.908203 5.0519843,18.580874 5,17.879419 5,16.199219 v -1.398438 c 0,-1.6802 0.051984,-2.381655 0.21875,-2.708984 0.1917965,-0.376431 0.4965948,-0.68125 0.8730469,-0.873047 0.1817272,-0.09258 0.4427801,-0.159311 0.96875,-0.191406 C 7.4820369,11.001594 8.0533713,11 8.8007813,11 Z M 12,13.5 a 1,1 0 0 0 -1,1 v 2 a 1,1 0 0 0 1,1 1,1 0 0 0 1,-1 v -2 a 1,1 0 0 0 -1,-1 z"
     id="path1" />
</svg>
